<svg width="21" height="21" viewBox="0 0 21 21" fill="none" xmlns="http://www.w3.org/2000/svg">
<path d="M10.95 8.70996C10.4195 8.70996 9.91081 8.92068 9.53574 9.29575C9.16067 9.67082 8.94995 10.1795 8.94995 10.71C8.94995 11.2404 9.16067 11.7491 9.53574 12.1242C9.91081 12.4992 10.4195 12.71 10.95 12.71C11.4804 12.71 11.9891 12.4992 12.3642 12.1242C12.7392 11.7491 12.95 11.2404 12.95 10.71C12.95 10.1795 12.7392 9.67082 12.3642 9.29575C11.9891 8.92068 11.4804 8.70996 10.95 8.70996Z" fill="white"/>
<path fill-rule="evenodd" clip-rule="evenodd" d="M9.94995 2.70996H11.95C11.9499 3.1065 12.0671 3.49421 12.2868 3.82429C12.5066 4.15436 12.8191 4.41207 13.185 4.56496L13.715 4.78496C14.0818 4.9355 14.4851 4.97414 14.8739 4.89602C15.2627 4.81791 15.6197 4.62652 15.9 4.34596L17.314 5.75996C17.0334 6.04024 16.842 6.39724 16.7639 6.78605C16.6858 7.17485 16.7244 7.57807 16.875 7.94496L17.095 8.47496C17.2478 8.84084 17.5055 9.15332 17.8356 9.37308C18.1657 9.59283 18.5534 9.71004 18.95 9.70996V11.71C18.5534 11.7099 18.1657 11.8271 17.8356 12.0468C17.5055 12.2666 17.2478 12.5791 17.095 12.945L16.875 13.475C16.7245 13.8419 16.6861 14.2452 16.7644 14.634C16.8426 15.0228 17.0342 15.3798 17.315 15.66L15.9 17.074C15.6198 16.7936 15.2629 16.6023 14.8743 16.5242C14.4857 16.4461 14.0827 16.4846 13.716 16.635L13.185 16.855C12.8191 17.0079 12.5066 17.2656 12.2868 17.5956C12.0671 17.9257 11.9499 18.3134 11.95 18.71H9.94995C9.94984 18.3136 9.83253 17.9261 9.61279 17.5962C9.39304 17.2663 9.08067 17.0088 8.71495 16.856L8.18495 16.636C7.81818 16.4852 7.41498 16.4463 7.02615 16.5242C6.63733 16.6022 6.28027 16.7935 5.99995 17.074L4.58595 15.66C4.86626 15.3797 5.05741 15.0228 5.13535 14.6342C5.21329 14.2456 5.17453 13.8426 5.02395 13.476L4.80395 12.945C4.65112 12.5792 4.39357 12.2669 4.06369 12.0471C3.73381 11.8274 3.34632 11.7101 2.94995 11.71V9.70996C3.75895 9.70996 4.49495 9.22296 4.80395 8.47496L5.02395 7.94496C5.17475 7.57819 5.21362 7.17499 5.13568 6.78616C5.05773 6.39734 4.86646 6.04028 4.58595 5.75996L5.99995 4.34596C6.28034 4.62636 6.6374 4.81755 7.02619 4.89549C7.41499 4.97343 7.81816 4.93462 8.18495 4.78396L8.71495 4.56396C9.08067 4.41113 9.39304 4.15358 9.61279 3.8237C9.83253 3.49382 9.94984 3.10633 9.94995 2.70996ZM5.94995 10.71L7.41395 14.246L10.95 15.71L14.485 14.246L15.95 10.71L14.485 7.17396L10.95 5.70996L7.41395 7.17396L5.94995 10.71Z" fill="white"/>
</svg>
