<svg width="61" height="61" viewBox="0 0 61 61" fill="none" xmlns="http://www.w3.org/2000/svg">
<path d="M36.0136 3.84804C32.7966 2.86504 29.0107 2.04104 25.4197 1.82004C23.7417 1.71704 17.0567 1.37404 16.1867 3.39604C15.6967 4.53704 16.0266 7.80404 14.9026 8.29904C14.4006 8.51904 12.8207 7.94904 11.0897 7.41504C8.92365 6.74604 6.49465 6.07504 5.23665 5.78304C4.45365 6.24304 3.97665 6.42904 3.19165 6.88204C3.03756 6.97092 2.85474 6.99578 2.68251 6.95128C2.51028 6.90677 2.36239 6.79645 2.27065 6.64404C2.22613 6.56892 2.19701 6.48568 2.18498 6.39919C2.17295 6.3127 2.17827 6.22468 2.2006 6.14025C2.22294 6.05583 2.26186 5.97671 2.31509 5.90748C2.36832 5.83825 2.4348 5.78032 2.51065 5.73704C3.25665 5.30704 4.25165 4.43504 5.07465 4.43504C5.28965 4.43504 5.61065 4.49804 5.92765 4.57004C8.69565 5.20004 11.4026 6.12304 14.1046 6.97704C14.2806 5.65604 14.1997 2.92604 15.4607 2.20004C18.1577 0.650043 21.7957 0.270043 25.5037 0.497043C29.2297 0.726043 33.1247 1.57704 36.4137 2.58204C46.0337 5.52404 52.4086 10.439 55.2096 15.959C56.0146 17.546 54.6106 20.316 54.0776 21.913C55.4486 22.663 56.8606 23.591 58.3736 24.017C58.8876 24.162 59.1186 24.574 59.2036 24.925C59.2836 25.256 59.2617 25.62 59.2187 25.926C58.3197 32.378 51.4546 39.684 44.5136 39.684C44.4259 39.6847 44.3389 39.6681 44.2576 39.6351C44.1763 39.6022 44.1023 39.5535 44.0398 39.4919C43.9773 39.4304 43.9276 39.3571 43.8934 39.2763C43.8592 39.1955 43.8413 39.1088 43.8406 39.021C43.8406 38.655 44.1416 38.358 44.5136 38.358C50.7916 38.358 57.0777 31.545 57.8857 25.746C57.9133 25.5859 57.9181 25.4226 57.8997 25.261C56.1697 24.711 54.5476 23.701 52.9736 22.824C52.6776 22.659 52.5096 22.337 52.6256 22.006C53.1996 20.36 53.9546 18.503 54.0056 16.745C51.2426 11.835 44.5136 6.44704 36.0136 3.84804V3.84804ZM36.4376 40.347C36.8096 40.347 37.1106 40.644 37.1106 41.01C37.1106 41.653 36.8936 42.592 36.5556 43.43C35.2216 46.739 31.7757 45.85 29.3307 47.562C28.7378 47.9836 28.1527 48.416 27.5757 48.859C29.3367 49.829 31.1697 51.01 32.4277 52.613C33.7477 54.294 33.6157 57.16 33.0407 59.144C32.8837 59.686 32.0057 59.867 31.5587 60.068C31.3969 60.1416 31.2128 60.1487 31.0459 60.0877C30.879 60.0267 30.7428 59.9026 30.6667 59.742C30.6298 59.6627 30.6091 59.5767 30.6059 59.4893C30.6026 59.4018 30.6168 59.3145 30.6476 59.2326C30.6784 59.1507 30.7252 59.0757 30.7853 59.0121C30.8454 58.9485 30.9176 58.8975 30.9977 58.862L31.8177 58.492C32.1527 56.896 32.4427 54.801 31.3627 53.425C30.0227 51.717 27.9547 50.502 26.0427 49.56C25.9431 49.51 25.8578 49.4357 25.7944 49.3441C25.7311 49.2524 25.6918 49.1463 25.6801 49.0355C25.6685 48.9247 25.6849 48.8127 25.7278 48.7099C25.7707 48.6071 25.8387 48.5167 25.9257 48.447L25.9277 48.445L25.9577 48.422C26.235 48.2042 26.509 47.9822 26.7797 47.756C27.6137 47.066 28.4827 46.346 29.4347 45.93C31.4597 45.043 34.3366 45.341 35.3046 42.94C35.6046 42.196 35.7646 41.43 35.7646 41.01C35.7646 40.644 36.0656 40.347 36.4376 40.347V40.347Z" fill="#FAFA19"/>
<path fill-rule="evenodd" clip-rule="evenodd" d="M15.9299 3.95505L14.4479 9.09505L5.63791 6.18905L3.26791 7.23205C2.77491 9.41805 2.08391 14.8321 3.26791 19.0021C4.74891 24.2181 9.26591 27.7941 10.9679 28.6131C12.3309 29.2691 13.4609 29.7801 13.8559 29.9541C14.1029 30.6741 14.7299 32.4121 15.2629 33.6041C15.6877 34.545 16.1572 35.465 16.6699 36.3611C16.4229 36.6091 16.0769 37.3741 16.6699 38.4471C16.8619 38.7951 17.0949 39.1641 17.3399 39.5531C18.0379 40.6601 18.8389 41.9301 19.1129 43.3631C19.4089 44.9131 19.2359 46.9391 19.1129 47.7591C17.8789 47.7091 14.9669 47.7141 13.1899 48.1311C11.4129 48.5481 10.4749 49.6461 10.2279 50.1431L9.04291 52.9731C9.63591 54.4631 12.3899 57.8161 18.6689 59.3061C24.9469 60.7961 28.8369 59.9261 29.9969 59.3061C30.2679 58.1881 30.6479 55.6561 29.9969 54.4641C29.3449 53.2721 26.1719 50.6891 24.6659 49.5471C25.1599 48.4291 26.5319 46.0161 28.0719 45.3001C28.9719 44.8821 29.9379 44.5941 30.8249 44.3301C31.8329 44.0301 32.7379 43.7601 33.3289 43.3641C34.2169 42.7681 34.5869 42.1721 34.6609 41.9481C35.2289 41.7001 36.6459 40.9801 37.7709 40.0861C38.8969 39.1921 39.2269 38.9191 39.6959 38.4461C41.5959 38.5211 45.2049 38.1641 47.0999 37.0311C52.0599 34.0691 53.6459 31.3831 56.2069 26.2291L50.3569 22.9511L52.4309 16.5441C50.6299 14.0611 45.3079 7.91805 36.9569 4.70005C28.6049 1.48205 19.2859 2.61505 15.9289 3.95605L15.9299 3.95505ZM8.89391 12.0001L13.2629 13.1181L12.3739 22.2061C11.4119 21.7101 9.36791 19.9561 8.89391 16.9171C8.42091 13.8771 8.69691 12.3731 8.89391 12.0001V12.0001Z" fill="white"/>
<path fill-rule="evenodd" clip-rule="evenodd" d="M16.3154 3.83504C15.8124 4.27704 15.0314 6.64103 14.9314 8.02503C14.8584 9.04203 14.8694 9.08804 15.2544 9.33804C15.6364 9.58704 16.7944 9.85504 17.1544 9.58504C17.1544 9.58504 17.3214 8.54104 17.9564 6.53604C18.5744 4.58304 18.6124 4.15104 18.1984 3.74004C17.8104 3.35404 16.7824 3.42404 16.3154 3.83504V3.83504ZM4.33737 6.42404C3.70037 6.73004 3.24537 7.58004 2.89237 9.11804C2.49037 10.866 2.53237 15.928 2.96537 17.898C3.36437 19.715 4.33737 21.816 5.35237 23.144C7.38237 25.801 8.42037 26.932 10.9694 28.604C13.2084 30.072 14.9194 29.096 15.3304 28.604C15.7114 28.148 17.1304 28.643 15.7844 27.886C14.7264 27.291 12.8594 26.221 11.1694 24.546C7.99936 21.406 7.39337 20.352 6.46737 16.346C5.98737 14.271 5.99237 10.762 6.47937 8.21204C6.81637 6.44204 6.82237 6.31904 6.58737 5.96204C6.29737 5.52204 5.04337 6.08304 4.33737 6.42404V6.42404ZM15.0464 12.762C14.8442 13.0111 14.6019 13.2247 14.3294 13.394C13.5314 13.844 12.7884 15.949 12.4834 18.627C12.0624 22.317 14.9534 27.432 14.9314 21.004C14.9234 18.428 15.0964 17.462 15.3314 16.208C15.8444 15.279 17.0524 13.985 17.0644 12.814C17.0724 12.017 15.5624 12.094 15.0464 12.762V12.762ZM43.5994 34.506C47.7954 33.465 50.0694 31.126 51.8504 27.35C50.8984 26.693 49.9924 26.317 48.8774 25.727C46.9224 29.409 45.9054 31.087 43.5994 34.506ZM14.5644 31.683C15.0234 34.341 17.6044 35.316 16.1564 37.024C15.9434 37.275 15.7844 37.649 15.7844 37.898C15.7844 38.146 17.0244 38.894 17.5844 39.965C18.6914 42.084 19.0544 43.438 19.0584 45.351C19.0614 46.361 18.6224 48.506 20.4784 48.506C21.1184 48.506 22.5754 47.596 22.8754 46.404C23.2904 44.751 23.3574 43.939 23.1814 42.714C22.9264 40.946 22.3574 39.93 20.7974 38.458C19.5634 37.296 18.5174 36.911 18.5174 36.382L18.1294 34.768C17.5674 34.011 17.3984 33.688 17.0644 32.734C16.7964 31.969 16.5664 31.948 16.7204 30.964C16.8744 29.982 17.0704 29.568 16.9154 29.384C15.7624 28.005 14.3954 30.703 14.5644 31.684V31.683ZM9.48237 51.99C8.17437 55.123 20.5344 59.507 21.8734 59.737C25.9384 60.437 28.7284 60.045 29.3284 59.737C30.2724 59.253 30.3924 58.169 29.6214 57.073C27.0614 53.428 21.9324 51.314 17.5684 50.662C15.0404 50.284 10.1464 50.399 9.48237 51.99V51.99Z" fill="black"/>
<path fill-rule="evenodd" clip-rule="evenodd" d="M12.1347 6.83502C13.4197 7.28602 14.1807 7.45402 14.1807 7.45402C14.1807 7.45402 14.7527 3.90102 15.1457 3.38102C23.1477 -2.24498 48.3257 4.12102 53.5997 15.894L53.6097 15.94C53.6647 16.21 53.7997 16.874 53.5997 17.67C53.3917 18.5 52.2817 21.917 52.2817 21.917C52.2817 21.917 56.1637 23.964 57.6377 24.972C57.9917 25.215 58.0137 25.773 57.8577 26.365C57.5557 27.504 55.1417 31.71 53.3107 33.737C50.0277 37.371 44.6447 39.823 39.7547 39.701C38.6557 40.812 37.8497 41.585 35.8477 42.16C35.7547 42.16 35.6397 42.343 35.5927 42.567C35.4757 43.123 34.9957 43.873 34.5807 44.147C34.3927 44.272 33.3697 44.573 32.3077 44.817C30.1977 45.301 29.5117 45.601 27.9237 46.734C26.6267 47.659 25.6967 48.824 26.2557 48.824C26.3307 48.824 26.9957 49.231 27.7337 49.73C29.5017 50.925 30.9087 52.376 31.6117 53.726L32.1657 54.793L32.0657 56.51C31.9357 58.752 31.8037 59.217 31.1377 59.772C30.1347 60.607 28.2787 60.999 25.3127 61C22.1427 61.001 19.0257 60.181 15.3497 58.38C13.2577 57.354 12.1737 56.607 10.6047 55.111C9.27767 53.847 8.98467 53.36 8.93867 52.356C8.90767 51.651 8.99567 51.37 9.70267 49.932C10.1427 49.037 10.6367 48.188 10.8027 48.045C11.3127 47.604 13.1057 46.765 14.1047 46.502C14.7807 46.323 15.6407 46.252 17.0717 46.253L19.0867 46.256V46.178C19.0867 45.312 19.0867 44.445 18.8687 43.6C18.5117 42.214 17.2887 39.934 16.2207 38.664C15.3267 37.601 15.2527 37.461 15.3187 36.961C15.3587 36.661 15.5407 36.213 15.7227 35.964L16.0527 35.511L15.5207 34.486C15.1155 33.6729 14.7439 32.8436 14.4067 32C14.0867 31.195 13.7397 30.49 13.6357 30.434C13.5307 30.378 12.9377 30.094 12.3167 29.803C9.10867 28.298 4.54867 23.037 3.47567 19.602C2.80567 17.461 2.62567 15.984 2.61467 12.545C2.60367 9.33502 2.81167 7.52702 3.31367 6.47402C3.50867 6.06502 5.44867 5.00502 6.01467 4.99702C6.47167 4.99102 9.31067 5.84402 12.1347 6.83602V6.83502ZM9.24467 7.82502C10.8227 8.34702 16.1177 10.399 16.2837 10.555C16.3777 10.643 16.1437 11.947 16.0377 11.923C15.9817 11.91 15.7537 11.99 15.5297 12.099C15.1547 12.283 14.8867 12.219 12.1167 11.287C10.3167 10.681 9.05767 10.33 8.97867 10.41C8.90567 10.484 8.76967 11.31 8.67767 12.246C8.23967 16.675 9.25467 19.886 12.0197 22.814C12.7127 23.549 14.7227 25.156 15.1457 25.314C15.3007 25.371 15.4127 25.667 15.4777 26.191C15.5317 26.626 15.6117 27.181 15.6557 27.426C15.7347 27.856 15.7107 27.878 14.8717 28.146C14.3347 28.317 13.4687 28.104 12.5037 27.666C10.6717 26.835 6.38367 22.047 5.27767 19.207C4.74067 17.829 4.60867 16.949 4.49867 14.015C4.41867 11.883 4.44867 11.115 4.66267 9.76502L4.92267 8.11502L5.74167 7.68502C6.19167 7.45002 6.74567 7.24702 6.97467 7.23502C7.20267 7.22302 8.22467 7.48902 9.24467 7.82502V7.82502ZM11.8597 13.607L12.9647 13.932L12.8747 14.592C12.8267 14.955 12.7147 16.025 12.6277 16.971C12.5407 17.916 12.4207 19.089 12.3587 19.578L12.2487 20.466L11.6487 19.207C10.9007 17.635 10.4457 15.947 10.3357 14.334C10.2587 13.197 10.2727 13.096 10.5027 13.185C10.6417 13.239 11.2527 13.429 11.8597 13.607ZM19.4197 48.607C22.6137 49.172 26.1117 50.79 28.4167 52.768C29.1967 53.437 29.6237 54.262 29.8647 55.563L29.9707 56.133L29.2537 55.533C28.3337 54.763 27.0117 53.357 25.5507 52.768C24.0277 52.154 22.9137 52.115 22.9137 52.115C22.8867 52.143 23.1977 52.805 23.7487 53.023C24.9237 53.488 26.6287 54.588 27.7317 55.59C28.6317 56.408 29.6347 57.643 29.6347 57.933C29.6347 58.586 24.5627 58.9 22.2357 58.391C18.2887 57.527 13.8817 55.414 11.5917 53.285L10.8357 52.583L11.1877 51.643C11.6337 50.455 12.6777 49.258 13.5657 48.915C15.0347 48.348 17.2857 48.23 19.4197 48.607V48.607ZM42.5387 36.917C46.9337 33.175 49.4977 28.925 51.1827 24.408C52.2467 25.001 52.9977 25.398 53.5557 25.692C54.1137 25.987 54.4787 26.18 54.7717 26.365C54.1127 30.017 48.1787 36.403 42.5387 36.917ZM32.0667 42.567C32.0667 42.567 25.3127 43.065 24.4437 47.729C23.3457 47.063 22.4337 46.819 21.3677 46.619C21.3677 46.619 22.2367 41.954 18.4107 37.914C19.4207 36.401 22.9057 37.29 25.7627 38.178C28.6197 39.067 33.0147 41.51 32.0667 42.567V42.567ZM51.1897 16.43L50.8147 17.916C50.0147 21.156 47.9747 25.546 46.5017 28.09C44.5017 31.542 39.8077 37.188 36.8217 39.425L36.7167 39.505C35.6527 40.302 35.2197 40.565 34.9327 40.535C34.7787 40.518 34.3727 40.17 34.2617 40.05C33.3217 39.175 31.8467 38.156 29.9457 37.234C26.7787 35.698 24.0757 34.578 20.5917 34.43L18.0777 34.568L17.7657 34.035C17.3657 33.348 16.2277 30.57 16.2277 30.57C16.2277 30.374 16.6817 29.961 17.1587 29.961C18.0577 29.961 18.0087 28.658 17.8587 28.127C17.7397 27.707 17.6357 27.037 17.5447 26.449C17.4997 26.16 17.4577 25.892 17.4187 25.684C17.0897 23.914 16.7487 23.35 15.5367 22.758L15.2937 22.64C14.6127 22.312 14.4987 22.258 14.4137 21.686C14.2737 20.741 14.7507 15.874 15.0017 15.022L15.0077 14.999C15.0627 14.809 15.1427 14.536 15.5367 14.536C16.1587 14.536 17.3527 14.224 17.6387 13.876C17.9547 13.491 18.5177 11.159 18.5177 10.498C18.5177 9.42802 18.3537 9.07802 17.3027 8.58102C16.9693 8.42378 16.6319 8.2754 16.2907 8.13602C16.5017 7.17602 16.9707 4.94002 16.9707 4.94002C26.2007 0.423023 47.2097 8.61602 51.1897 16.43Z" fill="#323239"/>
</svg>
