<svg width="20" height="20" viewBox="0 0 20 20" fill="none" xmlns="http://www.w3.org/2000/svg">
<path fill-rule="evenodd" clip-rule="evenodd" d="M9.171 4.171C8.42087 3.42117 7.40364 2.99996 6.343 3H6C4.93913 3 3.92172 3.42143 3.17157 4.17157C2.42143 4.92172 2 5.93913 2 7V7.343C1.99998 7.86841 2.10347 8.38868 2.30457 8.87409C2.50566 9.3595 2.80042 9.80053 3.172 10.172L10 17L16.828 10.172C17.1996 9.80053 17.4943 9.3595 17.6954 8.87409C17.8965 8.38868 18 7.86841 18 7.343V7C18 5.93913 17.5786 4.92172 16.8284 4.17157C16.0783 3.42143 15.0609 3 14 3H13.657C13.1316 2.99998 12.6113 3.10347 12.1259 3.30457C11.6405 3.50566 11.1995 3.80042 10.828 4.172L10 5L9.171 4.171ZM10 14.171L15.414 8.757C15.7891 8.38201 15.9999 7.87339 16 7.343V7C16 6.46957 15.7893 5.96086 15.4142 5.58579C15.0391 5.21071 14.5304 5 14 5H13.657C13.1266 5.00011 12.618 5.2109 12.243 5.586L10 7.828L7.757 5.586C7.38201 5.2109 6.87339 5.00011 6.343 5H6C5.46957 5 4.96086 5.21071 4.58579 5.58579C4.21071 5.96086 4 6.46957 4 7V7.343C4.00011 7.87339 4.2109 8.38201 4.586 8.757L10 14.172V14.171Z" fill="white"/>
</svg>
