<svg width="69" height="69" viewBox="0 0 69 69" fill="none" xmlns="http://www.w3.org/2000/svg">
<path d="M25.798 5.00801C26.994 4.45001 28.19 5.38501 28.848 6.33101C29.576 7.37801 29.874 8.64601 30.176 9.86701C30.507 11.206 30.825 12.665 31.421 13.917C31.583 14.257 31.548 14.377 31.556 14.717C31.567 15.199 32.026 15.495 32.475 15.433C32.932 15.407 33.375 15.32 33.781 15.228C35.569 14.823 37.364 14.454 39.145 14.016C40.1642 13.759 41.1877 13.5193 42.215 13.297C43.218 13.086 44.227 13.018 45.305 12.948C48.571 12.738 51.799 12.132 54.987 11.404C55.441 11.3 55.941 11.477 56.392 11.557C57.802 11.807 58.932 12.54 59.713 13.76C60.533 15.041 60.491 15.691 61.053 17.376C61.928 20.002 62.135 22.779 62.767 25.464C63.495 28.559 64.12 31.829 65.323 34.768C66.235 36.999 66.817 39.405 67.253 41.806C67.502 43.174 67.562 44.289 67.259 45.653C67.192 45.956 66.876 46.414 66.339 46.942C65.8605 47.402 65.3455 47.8223 64.799 48.199C63.676 48.976 62.497 50.078 61.88 51.312C61.83 51.3994 61.7983 51.4961 61.7869 51.5962C61.7755 51.6963 61.7847 51.7977 61.8139 51.8941C61.8431 51.9905 61.8916 52.0799 61.9566 52.1569C62.0215 52.2339 62.1015 52.2968 62.1916 52.3418C62.2818 52.3868 62.3801 52.4129 62.4807 52.4186C62.5813 52.4242 62.6819 52.4093 62.7765 52.3747C62.8711 52.34 62.9576 52.2865 63.0308 52.2172C63.104 52.148 63.1622 52.0645 63.202 51.972C63.388 51.602 63.78 51.106 64.266 50.607C65.218 49.631 66.403 48.95 67.375 47.997C67.929 47.452 68.534 46.733 68.702 45.974C69.047 44.422 68.991 43.097 68.708 41.541C68.263 39.092 67.658 36.574 66.691 34.208C66.083 32.723 65.651 31.148 65.331 29.548C65.156 28.668 64.918 27.805 64.681 26.941C64.5115 26.3387 64.3531 25.7332 64.206 25.125C63.874 23.714 63.68 22.413 63.445 21.063C63.132 19.27 62.612 17.563 62.132 15.815C61.882 14.901 61.644 14.035 60.958 12.963C60.31 11.95 59.226 10.862 58.138 10.333C57.342 9.94701 55.491 9.77201 54.658 9.96301C51.959 10.579 50.106 10.919 47.364 11.285C45.55 11.527 43.707 11.472 41.91 11.85C40.861 12.07 39.818 12.328 38.79 12.58C37.44 12.913 36.118 13.238 34.794 13.483C34.197 13.593 33.614 13.768 33.016 13.877C32.867 13.475 32.645 13.105 32.501 12.701C32.145 11.705 31.887 10.626 31.634 9.60101C31.313 8.30101 30.96 6.77801 30.062 5.48701C29.565 4.77301 28.87 4.09701 28.038 3.70501C27.188 3.30301 26.184 3.19601 25.173 3.66801C24.474 3.99401 23.774 4.32301 23.137 4.76201C22.615 5.12001 22.304 5.67301 22.097 6.13601C21.91 6.55301 21.777 6.99001 21.606 7.41301C21.5632 7.50406 21.5395 7.60287 21.5362 7.70341C21.5329 7.80395 21.5501 7.90411 21.5869 7.99776C21.6236 8.09141 21.679 8.1766 21.7498 8.2481C21.8205 8.31961 21.9051 8.37594 21.9984 8.41365C22.0916 8.45136 22.1916 8.46966 22.2922 8.46744C22.3927 8.46521 22.4918 8.4425 22.5833 8.4007C22.6748 8.3589 22.7568 8.29888 22.8243 8.22431C22.8919 8.14974 22.9435 8.06219 22.976 7.96701C23.24 7.31701 23.368 6.39701 23.975 5.98001C24.523 5.60301 25.118 5.32501 25.783 5.01501L25.798 5.00801V5.00801Z" fill="#00FAFA"/>
<path d="M27.726 6.42999L31.506 16.04C38.544 14.937 53.026 12.637 54.664 12.259C56.712 11.786 58.76 12.574 59.391 14.779C60.021 16.985 65.219 38.094 65.849 39.984C66.479 41.874 66.795 43.135 66.637 44.238C66.48 45.341 62.384 50.224 60.651 51.012C58.918 51.8 52.301 54.005 44.267 55.895C36.233 57.785 18.274 62.355 15.911 62.985C13.548 63.615 11.185 63.457 10.24 61.882C9.29501 60.306 8.03401 56.841 4.88401 44.711C1.73301 32.58 1.10301 29.902 1.41801 28.8C1.73301 27.697 4.41101 21.553 5.82801 21.08C6.96301 20.702 20.059 18.192 26.466 16.985L23.63 9.42199C23.683 8.73899 24.071 7.18499 25.206 6.42899C26.34 5.67299 27.358 6.11399 27.726 6.42899V6.42999Z" fill="white"/>
<path fill-rule="evenodd" clip-rule="evenodd" d="M23.902 8.423C23.025 9.051 23.016 9.354 23.831 10.953C24.218 11.714 24.981 13.293 25.525 14.463L26.623 17.078H28.859C28.775 16.507 25.818 9.128 25.459 8.593C25.017 7.937 24.639 7.895 23.902 8.423ZM1.892 27.303C1.256 29.742 1.203 30.2 1.405 31.519C1.509 32.195 1.702 33.048 1.835 33.413C1.969 33.778 2.25 34.892 2.46 35.888C3.732 41.92 4.989 46.445 7.403 53.69C8.168 55.986 8.877 58.183 8.977 58.573C9.325 59.92 10.217 61.498 11.009 62.166C12.542 63.458 13.123 63.661 14.076 63.235C14.349 63.113 14.997 62.977 15.517 62.932C25.226 61.094 46.066 55.58 57.815 51.944C59.624 51.531 60.067 51.3 62.451 49.527C64.275 48.17 66.48 45.025 66.48 45.025L65.98 43.292C65.98 43.292 65.377 44.996 63.014 45.655C62.191 45.885 60.789 46.265 59.706 46.598C58.622 46.931 57.169 47.323 56.476 47.468C54.156 47.953 42.3 51.162 41.002 51.655C40.575 51.818 39.01 52.262 35.209 53.298C34.169 53.581 31.192 54.429 28.593 55.183C25.993 55.936 22.98 56.75 21.897 56.991C20.814 57.232 19.409 57.585 18.774 57.775C16.481 58.463 15.084 58.485 13.844 57.852C13.218 57.532 11.996 54.457 10.871 50.368C10.4667 48.8958 10.0543 47.4258 9.634 45.958C8.37 41.6 7.244 37.312 6.449 33.84C5.94167 31.7016 5.37243 29.5784 4.742 27.473C4.513 26.734 4.238 24.861 4.884 22.025C4.884 22.025 2.129 26.389 1.891 27.303H1.892ZM43.076 23.748C42.263 23.943 40.934 24.75 40.502 25.311C40.277 25.604 39.832 26.152 39.514 26.529C38.77 27.411 38.504 28.55 38.744 29.839C38.959 31.007 39.482 31.879 40.56 32.863C42.284 34.439 44.198 34.715 46.157 33.67C46.697 33.382 47.327 32.905 47.555 32.61C47.783 32.315 48.26 31.726 48.615 31.301C48.969 30.877 49.341 30.256 49.441 29.922C49.696 29.072 49.668 27.747 49.375 26.761C48.724 24.566 45.7 23.121 43.075 23.748H43.076ZM46.066 25.77C47.109 26.349 47.426 26.822 47.528 27.956C47.669 29.51 46.938 30.588 45.462 31.001C44.495 31.271 43.741 31.098 43.007 30.434C41.831 29.372 41.371 27.614 41.968 26.464C42.558 25.325 44.631 24.974 46.066 25.77V25.77ZM23.788 26.279C23.658 26.363 23.285 26.433 22.959 26.434C22.197 26.437 19.805 26.97 18.706 27.381C17.556 27.811 17.1 28.317 17.1 29.161C17.1 29.669 17.01 29.899 16.707 30.159C16.365 30.453 16.319 30.609 16.351 31.374C16.371 31.856 16.523 32.684 16.688 33.214C16.902 33.903 16.935 34.191 16.804 34.229C14.75 34.83 14.746 34.833 14.327 35.652C14.107 36.085 13.705 36.658 13.437 36.925C12.719 37.637 12.591 38.289 12.861 39.855C13.154 41.547 13.671 43.297 13.982 43.647C14.176 43.865 14.478 43.922 15.424 43.917C16.565 43.913 18.694 43.695 19.214 43.53C19.413 43.467 19.528 43.778 19.814 45.143C20.308 47.508 20.669 48.18 21.634 48.532C22.369 48.8 22.436 48.799 23.76 48.485C25.78 48.007 27.568 47.389 27.903 47.054C28.083 46.873 28.201 46.529 28.205 46.167C28.21 45.677 28.296 45.523 28.717 45.26C29.055 45.047 29.292 44.724 29.433 44.282C29.619 43.695 29.605 43.475 29.315 42.327C29.135 41.615 29.005 41.022 29.027 41.007C29.047 40.994 29.452 40.847 29.925 40.68C30.547 40.462 30.887 40.228 31.15 39.837C31.35 39.54 31.725 39.194 31.982 39.069C32.706 38.719 32.878 37.874 32.554 36.267C32.301 35.009 31.394 32.067 31.136 31.664C30.846 31.211 30.261 31.157 29.018 31.468C28.45 31.6119 27.8796 31.7459 27.307 31.87C26.749 31.98 26.868 32.236 25.988 29.036C25.573 27.524 25.175 26.701 24.7 26.368C24.294 26.083 24.117 26.066 23.788 26.278V26.279ZM24.158 30.926C24.468 32.139 24.743 33.337 24.768 33.589C24.794 33.863 24.977 34.169 25.226 34.353L25.64 34.661L27.71 34.148C28.847 33.866 29.8 33.663 29.826 33.698C29.928 33.832 30.9 37.019 30.851 37.054C30.821 37.075 30.479 37.181 30.089 37.29C27.126 38.12 26.752 38.282 26.524 38.827C26.326 39.301 26.344 39.531 26.704 41.127C26.922 42.101 27.139 43.017 27.184 43.163C27.252 43.376 27.018 43.503 25.961 43.825C25.242 44.043 24.358 44.27 23.996 44.327L23.337 44.432L23.177 43.822C23.09 43.488 22.87 42.612 22.688 41.875C22.251 40.099 22.078 39.691 21.635 39.401C21.297 39.18 21.137 39.188 19.809 39.496C19.008 39.682 18.069 39.932 17.723 40.052L17.094 40.27L16.674 38.67C16.444 37.79 16.232 36.968 16.202 36.843C16.16 36.67 16.609 36.52 18.075 36.213C20.638 35.677 20.743 35.576 20.497 33.891C20.397 33.21 20.117 31.893 19.874 30.964L19.432 29.276L19.995 29.183C20.6566 29.066 21.317 28.942 21.976 28.811C22.756 28.658 23.438 28.575 23.493 28.627C23.547 28.678 23.846 29.713 24.157 30.926H24.158ZM52.485 30.216C51.235 30.512 49.419 32.106 49.073 33.212C49.005 33.428 48.783 33.804 48.578 34.049C48.088 34.636 47.99 35.079 48.088 36.297C48.243 38.226 49.575 40.18 51.131 40.762C52.227 41.172 53.093 41.172 54.421 40.762C55.191 40.525 55.614 40.283 56.008 39.857C56.304 39.537 56.9 38.896 57.333 38.432C58.302 37.394 58.76 36.255 58.76 34.886C58.76 33.556 58.4 32.581 57.56 31.648C56.554 30.528 55.52 30.055 54.122 30.076C53.51 30.085 52.774 30.148 52.485 30.216V30.216ZM55.065 32.246C56.307 32.81 56.829 33.831 56.678 35.401C56.551 36.724 55.518 37.64 54.034 37.741C52.792 37.825 51.893 37.336 51.384 36.301C50.825 35.165 50.778 34.474 51.198 33.605C51.882 32.192 53.61 31.585 55.065 32.246V32.246Z" fill="black"/>
<path fill-rule="evenodd" clip-rule="evenodd" d="M24.97 5.51201C23.156 6.38601 22.115 8.59401 22.727 10.265C22.854 10.612 23.188 11.534 23.469 12.313C23.75 13.093 24.225 14.323 24.524 15.047C24.824 15.77 25.022 16.408 24.966 16.464C24.859 16.572 22.583 16.994 16.316 18.067C14.244 18.422 11.479 18.951 10.173 19.242C8.867 19.533 7.373 19.848 6.853 19.942C5.49 20.19 4.319 20.811 3.76 21.582C3.501 21.94 2.62 23.566 1.802 25.195C0.711002 27.37 0.315002 28.317 0.315002 28.753C0.315002 31.131 1.781 38.191 3.363 43.426C3.823 44.953 5.161 49.993 5.849 52.8C6.473 55.345 8.105 60.167 8.689 61.19C9.386 62.412 10.332 63.549 10.892 63.839C11.164 63.979 12.067 64.232 12.9 64.4L14.414 64.706L15.911 64.317C16.734 64.103 18.896 63.535 20.716 63.055C23.892 62.217 26.416 61.559 31.349 60.282C32.605 59.957 34.307 59.507 35.13 59.282C35.953 59.058 38.54 58.402 40.88 57.824C43.22 57.247 46.09 56.439 47.26 56.029C49.5 55.244 54.773 53.613 58.187 52.65C59.301 52.336 60.551 51.907 60.964 51.698C61.403 51.475 62.557 50.491 63.743 49.328C64.858 48.235 65.921 47.236 66.106 47.11C66.291 46.984 66.668 46.456 66.945 45.937C67.35 45.177 67.478 44.694 67.605 43.461L67.761 41.93L66.237 36.652C65.4 33.75 64.302 29.602 63.797 27.437C63.293 25.271 62.807 23.308 62.719 23.077C62.63 22.845 62.38 21.817 62.163 20.792C61.67 18.459 60.139 13.96 59.545 13.097C59.044 12.368 58.307 11.767 57.533 11.455C56.837 11.175 54.861 11.306 52.143 11.815C50.974 12.033 48.635 12.397 46.945 12.623C45.255 12.85 42.455 13.313 40.722 13.653C38.99 13.992 36.515 14.451 35.224 14.673C33.933 14.895 32.714 15.117 32.517 15.166C32.199 15.246 32.131 15.168 31.927 14.494C31.801 14.074 31.328 12.774 30.877 11.604C30.427 10.434 29.777 8.69801 29.435 7.74401C28.622 5.48401 28.387 5.24501 26.898 5.18101C25.95 5.14101 25.623 5.19601 24.969 5.51101L24.97 5.51201ZM27.007 7.53201C27.278 7.65601 27.507 7.98601 27.723 8.56001C27.897 9.02501 28.228 9.77601 28.458 10.23C28.83 10.961 30.128 14.46 30.348 15.318C30.423 15.616 30.308 15.671 29.056 15.934C28.189 16.116 27.6 16.17 27.459 16.08C27.336 16.001 27.07 15.547 26.869 15.07C26.667 14.594 26.205 13.53 25.842 12.707C25.488 11.9055 25.1367 11.1028 24.788 10.299L24.395 9.38801L24.743 8.66901C25.087 7.95801 25.821 7.35301 26.34 7.35201C26.488 7.35201 26.788 7.43201 27.007 7.53201V7.53201ZM57.27 13.563C57.692 13.84 58.676 15.687 59.21 17.205C59.395 17.729 59.754 19.183 60.008 20.435C61.121 25.924 62.706 32.296 64.434 38.228C65.961 43.473 65.962 43.253 64.404 45.56C63.041 47.581 61.956 48.832 60.825 49.686C59.993 50.315 58.102 51.124 56.87 51.378C55.878 51.583 50.396 53.193 47.418 54.154C45.815 54.671 42.767 55.518 40.644 56.037C33.255 57.841 31.576 58.239 30.01 58.554C29.144 58.728 26.982 59.257 25.205 59.728C21.662 60.669 16.058 62.048 14.571 62.346C11.786 62.903 10.761 61.826 9.009 56.502C8.568 55.159 7.815 52.572 7.337 50.752C6.86 48.932 6.067 46.062 5.575 44.372C5.083 42.682 4.514 40.626 4.31 39.803C4.106 38.98 3.726 37.527 3.465 36.573C3.1198 35.2674 2.80306 33.9544 2.515 32.635C1.95 30.023 1.985 29.408 2.798 27.673C3.103 27.023 3.689 25.725 4.101 24.789C4.513 23.853 4.979 22.944 5.137 22.77C5.605 22.253 7.549 21.425 8.901 21.166C9.594 21.033 11.153 20.77 12.366 20.579C13.579 20.389 15.812 20.026 17.329 19.772C18.845 19.518 21.397 19.101 22.999 18.845C29.328 17.837 30.028 17.713 30.639 17.495C31.697 17.114 41.461 15.395 47.969 14.443C50.395 14.088 53.124 13.661 54.034 13.494C55.854 13.16 56.681 13.178 57.27 13.564V13.563Z" fill="#323239"/>
</svg>
