<svg width="21" height="20" viewBox="0 0 21 20" fill="none" xmlns="http://www.w3.org/2000/svg">
<path fill-rule="evenodd" clip-rule="evenodd" d="M5.1438 7.00006C5.14402 6.0624 5.40789 5.14369 5.9053 4.34884C6.40271 3.55399 7.1136 2.91502 7.95681 2.50488C8.80001 2.09475 9.74156 1.92999 10.6739 2.02941C11.6063 2.12882 12.4919 2.48841 13.2297 3.06712C13.9675 3.64583 14.5277 4.42033 14.8463 5.30219C15.1649 6.18406 15.2291 7.13775 15.0316 8.05437C14.8341 8.97099 14.3829 9.81361 13.7294 10.486C13.0758 11.1584 12.2464 11.6335 11.3358 11.8571C11.4981 12.1992 11.7541 12.4882 12.0742 12.6906C12.3942 12.8929 12.7651 13.0002 13.1438 13.0001H14.1438C14.9394 13.0001 15.7025 13.3161 16.2651 13.8787C16.8277 14.4413 17.1438 15.2044 17.1438 16.0001V18.0001H15.1438V16.0001C15.1438 15.7348 15.0384 15.4805 14.8509 15.293C14.6634 15.1054 14.409 15.0001 14.1438 15.0001H13.1438C12.5762 15.0007 12.015 14.8803 11.4977 14.6468C10.9803 14.4133 10.5188 14.0721 10.1438 13.6461C9.76882 14.0721 9.30725 14.4133 8.78992 14.6468C8.27258 14.8803 7.71139 15.0007 7.1438 15.0001H6.1438C5.87858 15.0001 5.62423 15.1054 5.43669 15.293C5.24916 15.4805 5.1438 15.7348 5.1438 16.0001V18.0001H3.1438V16.0001C3.1438 15.2044 3.45987 14.4413 4.02248 13.8787C4.58509 13.3161 5.34815 13.0001 6.1438 13.0001H7.1438C7.52245 13.0002 7.89338 12.8929 8.21344 12.6906C8.5335 12.4882 8.78954 12.1992 8.9518 11.8571C7.86531 11.59 6.89972 10.9664 6.2094 10.0859C5.51908 9.2054 5.14389 8.11889 5.1438 7.00006ZM10.1438 10.0001C9.74983 10.0001 9.35973 9.92246 8.99575 9.7717C8.63177 9.62093 8.30105 9.39996 8.02248 9.12138C7.7439 8.8428 7.52292 8.51209 7.37216 8.14811C7.2214 7.78413 7.1438 7.39402 7.1438 7.00006C7.1438 6.60609 7.2214 6.21599 7.37216 5.85201C7.52292 5.48803 7.7439 5.15731 8.02248 4.87874C8.30105 4.60016 8.63177 4.37918 8.99575 4.22842C9.35973 4.07766 9.74983 4.00006 10.1438 4.00006C10.9394 4.00006 11.7025 4.31613 12.2651 4.87874C12.8277 5.44135 13.1438 6.20441 13.1438 7.00006C13.1438 7.79571 12.8277 8.55877 12.2651 9.12138C11.7025 9.68399 10.9394 10.0001 10.1438 10.0001Z" fill="#FF8280"/>
</svg>
