<svg width="70" height="70" viewBox="0 0 70 70" fill="none" xmlns="http://www.w3.org/2000/svg">
<path fill-rule="evenodd" clip-rule="evenodd" d="M39.05 6.664C38.237 6.572 37.218 6.498 36.451 6.85C36.3254 6.9077 36.1896 6.93996 36.0515 6.94493C35.9134 6.94989 35.7757 6.92747 35.6462 6.87894C35.5168 6.83041 35.3983 6.75674 35.2975 6.66218C35.1967 6.56763 35.1157 6.45405 35.059 6.328C34.9433 6.07283 34.9332 5.78232 35.0308 5.51972C35.1284 5.25713 35.3258 5.04373 35.58 4.926C36.705 4.409 38.082 4.426 39.286 4.562C40.365 4.683 41.401 4.715 42.571 4.802C46.815 5.12 50.898 6.707 53.539 10.214C55.063 12.237 56.763 14.806 57.169 17.323C57.559 19.738 57.611 21.958 57.635 24.379C57.641 24.923 57.648 25.518 57.602 26.135C59.353 27.505 58.575 31.096 58.356 33.034C58.258 33.9 58.116 34.761 57.985 35.623C58.975 37.077 59.57 38.726 60.143 40.379C60.717 42.036 61.447 44.142 61.451 46.111C61.456 48.534 61.445 51.155 60.511 53.433C60.161 54.287 59.615 55.25 58.803 55.807C58.471 56.034 57.856 56.328 57.413 56.532C57.105 56.674 56.911 56.724 56.753 57.02C56.547 57.402 56.238 57.93 55.815 58.537C53.789 61.447 50.767 63.751 47.482 65.04C46.551 65.405 45.452 65.604 43.892 65.782C43.6179 65.8039 43.3461 65.7183 43.1341 65.5433C42.922 65.3683 42.7865 65.1177 42.756 64.8444C42.7256 64.5712 42.8028 64.2968 42.9711 64.0795C43.1395 63.8621 43.3858 63.7189 43.658 63.68C45.189 63.506 46.058 63.33 46.722 63.07C49.599 61.94 52.317 59.876 54.095 57.325C54.465 56.794 54.732 56.335 54.905 56.015C54.988 55.859 55.07 55.701 55.143 55.539C55.374 54.997 56.053 54.833 56.541 54.609C57.029 54.384 57.466 54.166 57.621 54.059C57.916 53.857 58.265 53.367 58.568 52.628C59.393 50.618 59.354 48.251 59.35 46.118C59.346 44.386 58.626 42.448 57.985 40.575C57.465 39.055 56.911 37.695 56.039 36.523C55.773 36.165 55.835 35.773 55.899 35.365C56.028 34.519 56.169 33.675 56.265 32.825C56.449 31.191 56.723 29.409 56.294 27.793C55.838 27.463 55.34 27.237 55.444 26.544C55.546 25.862 55.541 25.17 55.534 24.376C55.509 22.062 55.467 19.973 55.094 17.666C54.746 15.508 53.174 13.231 51.864 11.493C49.589 8.473 46.054 7.184 42.412 6.912C41.365 6.834 40.171 6.79 39.05 6.664V6.664Z" fill="#0CE51C"/>
<path fill-rule="evenodd" clip-rule="evenodd" d="M51.047 14.492C50.441 13.371 48.386 10.813 45.013 9.554C40.796 7.98 36.32 7.475 34.498 7.82C32.674 8.164 27.124 11.11 23.966 15.973C21.44 19.864 20.315 21.971 20.068 22.539L18.938 22.823C18.041 23.867 16.086 26.678 15.43 29.571C14.774 32.463 14.566 36.021 14.543 37.437C12.91 38.123 9.47 40.052 8.779 42.282C8.622 42.789 8.449 43.321 8.271 43.866C7.471 46.322 6.581 49.051 6.701 50.976C6.847 53.327 11.132 59.166 13.993 60.588C16.853 62.01 20.981 63.162 23.332 63.015C25.212 62.897 26.9 61.815 27.509 61.288C28.456 62.218 30.946 64.175 33.319 64.553C36.288 65.025 39.677 65.407 41.412 64.641C42.799 64.028 44.744 63.506 45.542 63.321C47.136 62.585 50.598 60.621 51.698 58.658C52.798 56.694 53.447 55.33 53.633 54.893C54.346 55.065 55.981 55.02 56.815 53.466C57.858 51.523 58.319 46.218 57.448 44.197C56.751 42.58 54.454 38.274 53.392 36.323C53.802 35.133 54.568 32.472 54.365 31.35C54.162 30.228 53.781 28.812 53.617 28.244C53.7 26.697 53.743 22.984 53.253 20.511C52.763 18.038 51.578 15.469 51.047 14.493V14.492ZM26.733 37.712L22.743 36.575C23.373 34.631 24.801 30.489 25.466 29.465C26.0565 28.5624 26.6609 27.6689 27.279 26.785L27.416 25.564C28.258 23.782 30.744 19.923 33.952 18.746C37.161 17.57 40.304 16.806 41.475 16.573C41.927 16.623 42.926 17.34 43.308 19.801C43.69 22.261 44.003 25.007 44.112 26.073C43.794 26.861 43.043 28.727 42.583 29.883C42.123 31.041 41.444 32.273 41.163 32.745C39.822 32.457 36.513 32.084 34.005 32.9C31.495 33.716 28.112 36.448 26.733 37.712V37.712Z" fill="white"/>
<path fill-rule="evenodd" clip-rule="evenodd" d="M33.553 7.433C28.818 8.535 23.653 15.166 20.485 21.259C20.459 21.491 21.272 23.939 21.529 24.209C21.896 24.596 22.052 24.634 22.542 24.461C22.791 24.373 23.372 23.921 24.05 22.847C25.389 20.727 27.19 19.307 29.742 17.125C33.802 13.655 38.95 11.41 42.344 17.273C43.305 18.933 43.845 21.233 44.119 23.923C44.454 27.218 42.386 28.096 41.961 31.866C41.961 31.866 40.592 31.793 39.869 31.645C37.518 31.165 34.077 31.868 31.832 33.287C29.512 34.753 27.232 37.094 25.704 39.577L24.974 40.764C24.289 40.53 23.984 40.219 22.809 40.086C21.789 39.971 20.569 39.652 18.88 40.718C17.895 41.339 16.938 42.732 16.584 44.292C16.415 45.042 17.035 45.119 17.542 44.4C18.024 43.718 18.961 43.663 19.843 43.371C20.746 43.073 23.581 43.793 23.581 43.793C23.581 43.793 22.617 47.215 22.409 48.961C22.222 50.521 22.228 50.673 22.505 51.693C23.088 53.833 23.775 55.91 24.115 56.565C24.513 57.328 24.49 57.362 23.396 57.585C22.221 57.824 20.417 57.423 17.967 56.38C16.949 55.946 16.561 55.677 15.177 54.447C14.147 53.531 13.239 52.575 12.649 51.783C11.855 50.717 11.652 50.318 11.176 48.88C10.572 47.058 10.338 45.575 10.396 43.92C10.426 42.997 10.5 42.677 10.923 41.621C11.914 39.151 11.023 38.768 8.55799 42.735C7.53799 44.377 7.21899 49.221 7.28999 51.179C7.42699 54.926 11.89 59.398 15.633 61.339C20.573 63.902 25.194 63.064 27.588 61.057C29.626 62.927 31.574 63.537 33.36 64.255C34.741 64.811 37.088 65.161 38.57 65.033C39.606 64.943 41.954 62.869 40.4 62.501C38.2 61.981 36.373 61.192 34.545 58.123C33.642 56.606 33.35 55.89 32.893 54.065C32.599 52.897 32.197 51.322 32.289 50.501L32.572 47.988C32.452 47.923 30.019 47.821 29.578 47.822C27.518 47.824 29.668 43.754 30.164 42.626C30.804 41.167 33.109 39.695 34.952 38.076C37.646 35.707 42.853 35.148 45.077 32.216C49.319 25.384 46.387 13.4 40.309 9.094C39.203 8.311 34.39 7.238 33.554 7.433H33.553ZM18.694 22.97C18.158 23.566 17.804 24.167 17.761 24.55C17.741 24.735 17.539 25.265 17.315 25.728C16.422 27.571 15.017 32.65 14.753 34.985C14.658 35.83 14.678 36.068 14.865 36.318C15.269 36.861 16.135 36.694 16.469 36.01C16.551 35.842 16.973 34.424 17.406 32.86C18.202 29.982 19.506 26.838 20.723 24.38C21.183 23.452 20 21.513 18.693 22.97H18.694Z" fill="black"/>
<path d="M41.214 49.974C41.568 48.26 42.604 46.878 43.969 46.3C44.669 46.004 44.906 45.968 45.486 46.075C46.824 46.323 48.038 47.774 48.086 49.185C48.118 50.144 47.788 51.655 47.364 52.487C46.607 53.976 45.439 54.621 43.828 54.442C43.105 54.362 42.945 54.288 42.358 53.76C41.19 52.709 40.868 51.644 41.214 49.974V49.974Z" fill="#323239"/>
<path fill-rule="evenodd" clip-rule="evenodd" d="M36.642 5.514C34.932 5.442 32.598 6.581 31.175 7.276L31.145 7.29C25.981 9.812 21.841 15.234 19.902 20.512C19.902 20.512 18.619 20.186 17.77 21.532C15.912 24.477 14.266 28.721 13.45 33.7L13.143 36.423C10.593 37.98 9.04999 39.62 7.76799 42.391C5.14499 48.063 4.73299 55.138 9.78299 59.098C13.712 62.178 20.133 66.285 26.943 63.417L27.49 62.997L28.45 63.635C29.654 64.435 31.432 65.32 32.616 65.708C34.188 66.224 36.854 66.302 38.624 66.236C40.214 66.176 41.905 65.364 42.65 64.893C46.446 64.722 50.43 63.313 53.313 58.617C53.855 57.735 54.419 56.636 54.419 56.636C55.188 56.722 57.175 55.194 57.589 54.619C58.461 53.409 58.861 51.856 59.215 48.786C59.72 44.302 57.886 39.68 55.482 36.079C55.86 35.183 55.932 34.454 56.012 33.657C56.059 33.193 56.108 32.707 56.22 32.151C56.892 28.823 55.417 19.879 54.352 16.77C52.658 11.825 49.232 8.616 45.292 7.088C43.479 6.385 39.088 5.618 36.642 5.514V5.514ZM46.607 10.663C51.254 13.485 52.176 18.029 52.651 23.296L47.738 21.462C47.721 19.966 47.582 18.783 47.458 18.095C46.735 15.414 43.474 10.611 42.734 11.476C42.41 11.856 42.627 12.074 43.051 12.5C43.718 13.168 45.601 16.704 45.993 19.832C45.993 19.832 46.116 20.57 46.178 21.648L44.418 22.451C44.096 17.138 40.743 12.571 35.403 12.889C33.701 13.129 32.536 13.479 31.22 14.567C29.863 15.687 29.5 16.144 29.672 16.513C29.937 17.078 30.322 16.95 31.76 15.818C33.286 14.618 34.238 14.361 35.703 14.22C37.083 14.086 39.924 15.18 40.024 15.679C40.047 15.793 39.919 15.839 39.656 15.809C38.35 15.662 35.281 16.661 33.468 17.825C31.488 19.095 28.548 22.052 27.495 23.834L26.975 24.713L24.723 24.368C23.485 24.179 22.423 23.963 22.423 23.963L21.437 21.946C21.437 21.946 23.531 17.584 24.911 15.82C27.471 12.547 31.185 9.579 33.947 8.598C36.203 7.796 38.823 8.326 41.129 8.792C43.027 9.176 44.935 9.648 46.607 10.662V10.663ZM44.43 24.228C44.302 27.002 43.507 30 42.012 32.828C41.82 32.981 41.257 33.312 40.762 33.563C39.688 34.107 37.412 35.759 35.446 37.423C34.278 38.411 33.81 38.928 32.795 40.353C31.262 42.505 30.727 43.421 30.089 44.984C29.478 46.484 29.491 46.783 30.185 47.06C31.033 47.4 31.46 47.09 32.081 45.692C33.106 43.382 35.012 40.902 36.848 39.495C37.838 38.735 39.88 37.705 41.202 37.295C42.054 37.032 43.702 36.893 44.662 37.005C46.709 37.242 48.976 38.191 50.453 39.428C53.283 41.797 54.961 45.418 54.945 49.131C54.937 50.836 54.889 51.735 54.608 53.029C54.524 53.269 54.592 53.401 54.863 53.431C56.435 53.609 56.485 48.156 56.452 47.432C56.325 44.641 55.064 40.92 52.756 37.695C51.868 36.453 51.983 36.131 52.226 35.621C52.769 33.709 53.012 29.788 52.816 25.684L47.686 23.45C47.5888 25.0469 47.3438 26.6314 46.954 28.183C46.429 30.52 45.974 31.243 44.202 31.995C44.202 31.995 45.478 28.271 45.984 25.538C46.115 24.828 46.179 24.104 46.202 23.419L44.43 24.228V24.228ZM41.452 18.381C43.776 22.663 43.175 26.195 41.155 30.074C38.31 29.754 35.637 30.028 33.056 31.389C30.908 32.521 29.032 34.109 27.33 35.823C26.367 35.599 26.3 35.577 25.362 35.26C26.032 32.473 27.232 30.622 28.699 28.362L28.701 28.358C28.891 28.066 29.084 27.768 29.281 27.459C29.463 27.175 29.387 26.542 29.33 26.065C29.304 25.848 29.281 25.663 29.289 25.558C29.409 23.909 32.904 20.445 35.605 19.058C37.549 18.06 39.622 17.626 40.703 17.722C41.039 17.752 41.175 17.872 41.452 18.381V18.381ZM20.114 24.411C20.444 25.399 20.997 25.854 22.837 26.061C24.554 26.255 26.159 26.212 26.347 26.681C25.018 28.545 23.467 31.8 22.861 34.191L22.781 34.518C22.704 34.85 22.657 35.054 22.531 35.18C22.335 35.38 21.947 35.39 20.947 35.416C20.76 35.421 20.552 35.426 20.32 35.434C18.699 35.484 17.316 35.7 16.439 36.036C16.151 36.146 15.859 36.231 15.79 36.223C15.655 36.208 15.83 35.012 16.355 32.387C16.708 30.612 17.101 29.25 17.684 27.772C18.237 26.369 19.545 23.257 19.629 23.144C19.807 23.164 19.946 23.913 20.113 24.412L20.114 24.411ZM39.21 32.713C39.087 32.791 38.435 33.192 37.762 33.603C37.088 34.013 35.732 35.005 34.747 35.807C32.028 38.02 30.566 39.924 29.248 42.967C28.175 45.444 27.912 46.953 28.426 47.683C28.852 48.288 30.689 48.843 31.36 48.569C31.6 48.471 31.621 48.54 31.605 49.387C31.549 52.282 31.785 53.871 32.617 56.186C33.436 58.463 33.957 59.339 35.129 60.413C36.801 61.943 38.291 63.132 39.688 63.51C38.818 64.026 36.926 63.947 35.986 63.542C31.714 61.705 28.699 55.784 28.012 51.353C27.899 50.623 27.779 49.866 27.745 49.673C27.707 49.461 27.585 49.311 27.434 49.294C26.728 49.214 26.674 52.412 27.34 54.847C27.915 56.953 28.899 59.7 30.476 61.431C30.976 61.979 31.365 62.445 31.341 62.466C31.253 62.546 29.497 61.303 28.826 60.778C26.451 58.92 25.036 56.386 24.162 52.428L23.867 51.092L24.225 47.97C24.571 44.956 24.601 44.806 25.088 43.666C26.565 40.213 28.648 37.577 31.58 35.456C33.3 34.209 34.728 33.446 36.028 33.078C37.056 32.786 38.735 32.5 39.166 32.544C39.399 32.568 39.405 32.589 39.21 32.714V32.713ZM48.775 40.569C53.211 43.423 54.208 49.029 52.743 53.769C52.14 55.724 51.403 57.112 50.218 58.531C46.098 63.463 39.944 63.751 35.954 58.644C33.934 56.056 32.919 53.51 33.417 49.094C34.088 41.646 42.812 36.024 48.775 40.569V40.569ZM25.843 37.992C25.895 38.034 25.616 38.571 25.223 39.184L24.51 40.3L23.84 40.178C23.262 40.072 23.119 40.098 22.783 40.371C22.266 40.792 22.315 41.091 22.975 41.531C23.276 41.731 23.546 41.926 23.575 41.963C23.604 41.999 23.536 42.264 23.425 42.551L23.223 43.071L22.546 42.8C21.466 42.367 20.33 42.397 19.031 42.894C18.431 43.124 17.943 43.28 17.947 43.241C17.951 43.201 18.22 42.781 18.544 42.307C19.152 41.417 19.219 41.01 18.766 40.959C17.739 40.843 16.35 43.063 16.108 45.205C15.693 48.889 18.518 53.142 21.902 53.928L22.792 54.134L23.114 55.213C23.546 56.658 24.441 58.349 25.547 59.805C26.047 60.465 26.456 61.018 26.454 61.035C26.452 61.053 26.179 61.189 25.847 61.337C24.357 62.001 22.573 62.092 20.267 61.621C15.092 60.564 9.80999 56.812 8.45699 51.333C8.11099 49.937 8.79299 46.295 9.91699 43.537C10.519 42.057 11.113 41.291 12.754 39.879C14.267 38.578 14.904 38.275 17.198 37.769C18.309 37.525 19.32 37.417 21.241 37.336C21.726 37.316 25.708 37.883 25.844 37.992H25.843ZM22.246 43.98L22.816 44.197L22.65 44.816C22.558 45.156 22.37 46.444 22.23 47.676C22.011 49.621 22.003 50.049 22.168 50.922C22.272 51.475 22.353 51.972 22.347 52.026C22.323 52.235 21.22 51.828 20.452 51.327C18.541 50.081 17.007 47.356 17.43 45.959C17.694 45.086 19.237 44.035 20.56 43.827C21.37 43.699 21.553 43.716 22.246 43.98V43.98Z" fill="#323239"/>
</svg>
